<svg width="53" height="62" viewBox="0 0 53 62" fill="none" xmlns="http://www.w3.org/2000/svg">
<path d="M26.5 1L1 14.8462V46.3846L26.5 61L52 46.3846V14.8462L26.5 1Z" stroke="#F2F2F2" stroke-width="2" stroke-linecap="round" stroke-linejoin="round"/>
<path d="M27.6133 34.8633H20.3672V30.293H27.6133C28.7331 30.293 29.6445 30.1107 30.3477 29.7461C31.0508 29.3685 31.5651 28.8477 31.8906 28.1836C32.2161 27.5195 32.3789 26.7708 32.3789 25.9375C32.3789 25.0911 32.2161 24.3034 31.8906 23.5742C31.5651 22.8451 31.0508 22.2591 30.3477 21.8164C29.6445 21.3737 28.7331 21.1523 27.6133 21.1523H22.3984V45H16.5391V16.5625H27.6133C29.8398 16.5625 31.7474 16.9661 33.3359 17.7734C34.9375 18.5677 36.1615 19.668 37.0078 21.0742C37.8542 22.4805 38.2773 24.0885 38.2773 25.8984C38.2773 27.7344 37.8542 29.3229 37.0078 30.6641C36.1615 32.0052 34.9375 33.0404 33.3359 33.7695C31.7474 34.4987 29.8398 34.8633 27.6133 34.8633Z" fill="#F2F2F2"/>
</svg>
