<svg width="168" height="196" viewBox="0 0 168 196" fill="none" xmlns="http://www.w3.org/2000/svg">
<path d="M84 23L20.5 57.6154V136.462L84 173L147.5 136.462V57.6154L84 23Z" stroke="#F2F2F2" stroke-width="2" stroke-linecap="round" stroke-linejoin="round"/>
<path d="M88.6719 107.672H71.2812V96.7031H88.6719C91.3594 96.7031 93.5469 96.2656 95.2344 95.3906C96.9219 94.4844 98.1562 93.2344 98.9375 91.6406C99.7188 90.0469 100.109 88.25 100.109 86.25C100.109 84.2188 99.7188 82.3281 98.9375 80.5781C98.1562 78.8281 96.9219 77.4219 95.2344 76.3594C93.5469 75.2969 91.3594 74.7656 88.6719 74.7656H76.1562V132H62.0938V63.75H88.6719C94.0156 63.75 98.5938 64.7188 102.406 66.6562C106.25 68.5625 109.188 71.2031 111.219 74.5781C113.25 77.9531 114.266 81.8125 114.266 86.1562C114.266 90.5625 113.25 94.375 111.219 97.5938C109.188 100.812 106.25 103.297 102.406 105.047C98.5938 106.797 94.0156 107.672 88.6719 107.672Z" fill="#F2F2F2"/>
</svg>
