<svg width="27" height="27" viewBox="0 0 27 27" fill="none" xmlns="http://www.w3.org/2000/svg">
<path d="M18.5 8.89474C20.4891 8.89474 22.3968 9.72651 23.8033 11.2071C25.2098 12.6876 26 14.6957 26 16.7895V26H21V16.7895C21 16.0915 20.7366 15.4222 20.2678 14.9287C19.7989 14.4352 19.163 14.1579 18.5 14.1579C17.837 14.1579 17.2011 14.4352 16.7322 14.9287C16.2634 15.4222 16 16.0915 16 16.7895V26H11V16.7895C11 14.6957 11.7902 12.6876 13.1967 11.2071C14.6032 9.72651 16.5109 8.89474 18.5 8.89474ZM1 10.2105H6V26H1V10.2105Z" fill="#8F9BA8" stroke="#8F9BA8" stroke-width="2" stroke-linecap="round" stroke-linejoin="round"/>
<path d="M3.5 6.26316C4.88071 6.26316 6 5.08496 6 3.63158C6 2.1782 4.88071 1 3.5 1C2.11929 1 1 2.1782 1 3.63158C1 5.08496 2.11929 6.26316 3.5 6.26316Z" fill="#8F9BA8" stroke="#8F9BA8" stroke-width="2" stroke-linecap="round" stroke-linejoin="round"/>
</svg>
