<svg width="25" height="25" viewBox="0 0 25 25" fill="none" xmlns="http://www.w3.org/2000/svg">
<path d="M5.67787 5.24272C5.34892 4.44614 5.36208 3.53593 5.50813 2.70314C6.51363 2.98903 7.45797 3.44131 8.29757 4.03911C8.66599 4.3063 9.14888 4.39245 9.59887 4.26385C10.7536 3.93602 11.9528 3.77111 13.158 3.77441C14.4225 3.77441 15.6238 3.94921 16.7146 4.2626C17.1646 4.39245 17.6475 4.30505 18.0146 4.03786C18.8538 3.44019 19.7976 2.98792 20.8027 2.70189C20.9487 3.53469 20.9606 4.44489 20.6343 5.24022C20.4369 5.71967 20.5356 6.27154 20.9079 6.66359C21.8606 7.66618 22.3685 8.81861 22.3685 10.0172C22.3685 12.6567 19.7764 15.245 15.6133 16.0328C14.5712 16.2301 14.1646 17.4749 14.962 18.1878C15.4738 18.6448 15.7896 19.2891 15.7896 20.0057V23.7514C15.7896 24.0826 15.9282 24.4002 16.175 24.6343C16.4217 24.8685 16.7564 25 17.1054 25C17.4543 25 17.789 24.8685 18.0357 24.6343C18.2825 24.4002 18.4211 24.0826 18.4211 23.7514V20.0057C18.4211 19.2941 18.2632 18.6173 17.9817 18.0043C21.9514 16.697 25 13.7542 25 10.0172C25 8.33541 24.3632 6.78969 23.3066 5.49493C23.5829 4.47111 23.5579 3.43979 23.4527 2.64821C23.3592 1.93902 23.229 1.01009 22.7027 0.455727C21.9198 -0.367077 20.6237 0.117366 19.7027 0.415772C18.7147 0.733018 17.7747 1.17166 16.9067 1.72052C15.6817 1.42388 14.4222 1.27496 13.158 1.27728C11.8502 1.27728 10.5883 1.43335 9.40677 1.72177C8.53878 1.1729 7.59878 0.734254 6.61075 0.417021C5.68971 0.117366 4.39235 -0.367077 3.60947 0.455727C3.07263 1.02008 2.96079 1.87534 2.86474 2.60201L2.85816 2.64945C2.7529 3.44229 2.72922 4.47485 3.00553 5.49993C1.95291 6.79344 1.31608 8.33666 1.31608 10.0172C1.31608 13.7529 4.36472 16.697 8.33441 18.0043C8.04708 18.6277 7.89751 19.3004 7.89494 19.9808L7.67389 20.0232C6.73048 20.1468 6.12654 20.0357 5.71602 19.8709C4.71603 19.4689 4.20025 18.4563 3.57131 17.6822C3.17921 17.2015 2.60816 16.6009 1.73186 16.3237C1.56788 16.2719 1.39476 16.2513 1.22237 16.2629C1.04997 16.2746 0.881696 16.3184 0.727137 16.3918C0.414991 16.54 0.177679 16.7998 0.0674063 17.1141C-0.0428666 17.4283 -0.0170673 17.7713 0.139129 18.0675C0.295325 18.3637 0.569123 18.5889 0.900291 18.6935C1.63449 18.9257 2.14238 20.1194 2.60817 20.6488C3.09895 21.2081 3.75157 21.7924 4.68709 22.1695C5.58444 22.5316 6.63838 22.6602 7.89494 22.5141V23.7514C7.89494 24.0826 8.03357 24.4002 8.28032 24.6343C8.52708 24.8685 8.86175 25 9.21072 25C9.55968 25 9.89435 24.8685 10.1411 24.6343C10.3879 24.4002 10.5265 24.0826 10.5265 23.7514V20.0057C10.5265 19.2891 10.8423 18.6448 11.3541 18.1878C12.1528 17.4737 11.7449 16.2301 10.7028 16.0328C6.53838 15.245 3.94762 12.6567 3.94762 10.0172C3.94762 8.82111 4.4542 7.66868 5.4055 6.66608C5.77786 6.27404 5.87523 5.72217 5.67787 5.24272Z" fill="#8F9BA8"/>
</svg>
