<svg width="25" height="20" viewBox="0 0 25 20" fill="none" xmlns="http://www.w3.org/2000/svg">
<path d="M20.911 0.661361L19.3116 1.98683L12.5016 7.355L5.6915 1.93381L4.09207 0.608342C3.71528 0.277697 3.25531 0.0715792 2.76916 0.015525C2.28301 -0.0405292 1.79203 0.0559437 1.35707 0.292991C0.922098 0.530039 0.562249 0.897244 0.322102 1.34911C0.0819557 1.80098 -0.0279363 2.31766 0.00604082 2.83514V18.1974C0.00604082 18.6754 0.185083 19.134 0.50378 19.472C0.822478 19.8101 1.25472 20 1.70543 20H5.6915V9.76735L12.5016 15.1885L19.3116 9.76735V20H23.2977C23.7484 20 24.1806 19.8101 24.4993 19.472C24.818 19.134 24.9971 18.6754 24.9971 18.1974V2.83514C25.0205 2.32213 24.903 1.81294 24.6587 1.36946C24.4145 0.92598 24.0541 0.567314 23.6213 0.337059C23.1884 0.106803 22.7019 0.0148746 22.2208 0.0724473C21.7396 0.13002 21.2846 0.334614 20.911 0.661361Z" fill="#8F9BA8"/>
</svg>
